<?xml version="1.0" standalone="no"?>
<!DOCTYPE svg PUBLIC "-//W3C//DTD SVG 20010904//EN"
 "http://www.w3.org/TR/2001/REC-SVG-20010904/DTD/svg10.dtd">
<svg version="1.0" xmlns="http://www.w3.org/2000/svg"
 width="16.000000pt" height="16.000000pt" viewBox="0 0 16.000000 16.000000"
 preserveAspectRatio="xMidYMid meet">
<metadata>
Created by potrace 1.11, written by Peter Selinger 2001-2013
</metadata>
<g transform="translate(0.000000,16.000000) scale(0.002286,-0.002286)"
fill="#000000" stroke="none">
<path d="M0 3500 l0 -3500 3500 0 3500 0 0 3500 0 3500 -3500 0 -3500 0 0
-3500z m3875 2469 c55 -6 134 -17 175 -25 104 -21 353 -85 365 -94 6 -4 30
-14 55 -23 85 -29 205 -84 290 -132 47 -26 110 -61 140 -78 115 -63 325 -234
488 -395 192 -190 326 -381 451 -643 111 -232 159 -385 213 -679 21 -112 23
-154 22 -395 0 -155 -5 -296 -12 -330 -6 -33 -18 -98 -26 -145 -8 -47 -27
-126 -42 -175 -14 -50 -27 -102 -29 -116 -6 -44 -74 -217 -136 -344 -64 -132
-181 -317 -277 -437 -80 -100 -249 -270 -337 -339 -38 -30 -97 -76 -130 -102
l-61 -47 -92 25 c-101 27 -164 56 -262 120 -61 40 -187 100 -255 121 -29 9
-31 14 -49 109 l-18 100 30 130 c44 184 90 428 97 510 9 104 11 108 62 171
l48 59 5 122 c5 110 15 159 27 126 3 -7 14 -13 25 -13 19 0 19 4 13 109 -7
100 -6 109 11 119 22 12 24 56 10 251 l-9 123 23 -12 c49 -26 53 41 11 185
-45 155 -69 507 -42 615 6 25 11 62 11 83 l0 38 -36 -7 -36 -7 3 58 c2 40 -1
59 -12 66 -35 22 -58 9 -134 -78 -106 -122 -135 -153 -175 -189 -24 -21 -49
-64 -83 -140 -26 -60 -67 -143 -92 -184 -67 -113 -96 -173 -86 -183 5 -5 37 0
76 13 36 12 69 20 72 17 19 -20 -214 -237 -313 -293 -34 -19 -99 -48 -144 -64
-44 -17 -102 -41 -128 -54 -63 -32 -156 -60 -301 -90 -112 -24 -512 -162 -586
-202 -16 -10 -61 -43 -100 -74 -38 -31 -106 -83 -150 -114 -44 -31 -108 -84
-142 -117 -54 -53 -64 -68 -82 -132 -12 -40 -42 -128 -67 -197 -26 -69 -53
-148 -61 -176 l-16 -51 48 -104 c26 -57 58 -117 70 -134 41 -54 40 -70 -4
-118 -47 -51 -46 -48 -66 -266 -9 -91 -18 -167 -20 -170 -3 -2 -20 12 -39 32
-19 20 -38 37 -42 37 -11 0 -200 188 -265 262 -25 29 -64 78 -85 108 -21 30
-51 67 -66 82 -16 14 -28 32 -28 39 0 7 -6 20 -14 28 -8 9 -38 61 -67 116 -29
55 -62 116 -73 135 -27 44 -59 136 -52 148 7 12 -19 97 -42 136 -53 88 -103
257 -141 476 -11 63 -23 126 -26 140 -5 22 -4 21 10 -5 15 -30 15 -29 8 25 -4
30 -7 91 -8 135 0 44 -3 85 -6 90 -9 17 -3 99 9 122 7 13 12 58 11 110 -1 48
4 108 10 133 47 195 61 261 61 279 0 29 48 170 71 207 10 17 19 41 19 52 0 11
5 24 11 28 7 4 32 50 56 103 24 53 49 105 55 116 80 141 101 175 108 175 5 0
12 10 16 23 15 50 222 315 263 337 10 5 53 46 97 91 43 44 102 97 129 115 28
19 84 59 125 89 41 30 95 66 120 81 25 15 61 37 80 48 139 86 331 165 555 229
300 85 591 110 910 76z m-563 -3220 c23 -12 73 -25 112 -31 103 -13 155 -33
237 -89 110 -76 120 -80 185 -73 43 5 58 4 65 -7 5 -8 9 -75 9 -149 0 -152
-15 -229 -75 -395 l-37 -100 22 -81 c11 -44 18 -87 15 -96 -7 -18 -130 -94
-167 -103 -17 -4 -37 1 -59 14 -19 12 -48 21 -65 21 -22 0 -47 13 -82 40 -27
22 -56 40 -64 40 -7 0 -38 44 -68 97 -35 63 -76 118 -114 155 -56 55 -58 58
-53 100 2 24 14 86 26 138 42 182 42 174 10 234 -16 30 -36 81 -44 113 -8 32
-22 79 -31 104 -11 29 -14 57 -10 74 l7 28 70 -7 c40 -3 88 -15 111 -27z
m-892 -243 c0 -2 -7 -7 -16 -10 -8 -3 -12 -2 -9 4 6 10 25 14 25 6z m1800
-140 c0 -32 -32 -187 -70 -337 l-32 -124 26 -50 c43 -84 47 -102 30 -120 -14
-13 -31 -16 -136 -19 -18 -1 -25 8 -34 39 -27 88 -12 165 94 475 82 239 71
218 99 186 13 -15 23 -38 23 -50z m-1800 39 c-7 -8 -20 -15 -29 -15 -13 1 -13
3 3 15 26 19 42 19 26 0z m475 -182 l55 -78 -6 -86 -7 -86 39 -29 c77 -59 174
-158 217 -223 65 -98 82 -130 73 -138 -11 -11 -220 -62 -229 -56 -5 3 -6 21
-2 39 9 50 -11 52 -133 11 -133 -44 -186 -55 -326 -67 -97 -7 -121 -13 -186
-44 -41 -20 -80 -36 -87 -36 -18 0 -73 113 -73 150 0 17 7 63 16 101 12 54 26
82 57 121 71 87 70 86 169 19 106 -72 169 -98 206 -85 27 9 27 10 24 99 -2 50
-12 129 -23 177 -10 48 -19 98 -19 110 0 24 144 177 167 178 6 0 37 -35 68
-77z m-530 -43 c-3 -5 -14 -10 -23 -10 -15 0 -15 2 -2 10 20 13 33 13 25 0z"/>
</g>
</svg>
